<svg xmlns="http://www.w3.org/2000/svg" viewBox="0 0 1200 800">
  <defs>
    <linearGradient id="sky" x1="0" y1="0" x2="0" y2="1">
      <stop offset="0%" stop-color="#b8cfe8"/>
      <stop offset="100%" stop-color="#dde8f0"/>
    </linearGradient>
    <linearGradient id="ground" x1="0" y1="0" x2="0" y2="1">
      <stop offset="0%" stop-color="#8aab7a"/>
      <stop offset="100%" stop-color="#6e8f60"/>
    </linearGradient>
    <linearGradient id="facade" x1="0" y1="0" x2="0" y2="1">
      <stop offset="0%" stop-color="#e8e4dc"/>
      <stop offset="100%" stop-color="#d5d0c6"/>
    </linearGradient>
    <linearGradient id="balcony-shade" x1="0" y1="0" x2="0" y2="1">
      <stop offset="0%" stop-color="#c8c3bb" stop-opacity="0.4"/>
      <stop offset="100%" stop-color="#a09890" stop-opacity="0.6"/>
    </linearGradient>
  </defs>

  <!-- Sky -->
  <rect width="1200" height="800" fill="url(#sky)"/>

  <!-- Clouds -->
  <ellipse cx="200" cy="120" rx="90" ry="30" fill="white" opacity="0.7"/>
  <ellipse cx="260" cy="110" rx="70" ry="28" fill="white" opacity="0.8"/>
  <ellipse cx="900" cy="90" rx="110" ry="35" fill="white" opacity="0.65"/>
  <ellipse cx="970" cy="80" rx="80" ry="30" fill="white" opacity="0.7"/>

  <!-- Ground -->
  <rect x="0" y="640" width="1200" height="160" fill="url(#ground)"/>
  <!-- Path/pavement -->
  <polygon points="520,640 680,640 750,800 450,800" fill="#c8c0b0" opacity="0.7"/>

  <!-- Building main body -->
  <rect x="180" y="220" width="840" height="420" fill="url(#facade)"/>

  <!-- Top floor (set back) -->
  <rect x="230" y="160" width="740" height="65" fill="#ddd9d0"/>

  <!-- Roof edge -->
  <rect x="170" y="215" width="860" height="12" fill="#c0bbb2"/>
  <rect x="220" y="155" width="760" height="10" fill="#c0bbb2"/>

  <!-- Base / ground floor darker -->
  <rect x="180" y="570" width="840" height="70" fill="#ccc8be"/>

  <!-- Windows - Floor 1 -->
  <rect x="230" y="260" width="110" height="140" fill="#7a9db5" opacity="0.85"/>
  <rect x="390" y="260" width="110" height="140" fill="#7a9db5" opacity="0.85"/>
  <rect x="700" y="260" width="110" height="140" fill="#7a9db5" opacity="0.85"/>
  <rect x="860" y="260" width="110" height="140" fill="#7a9db5" opacity="0.85"/>
  <!-- Window frames -->
  <rect x="230" y="260" width="110" height="140" fill="none" stroke="#b0a898" stroke-width="3"/>
  <line x1="285" y1="260" x2="285" y2="400" stroke="#b0a898" stroke-width="2"/>
  <line x1="230" y1="330" x2="340" y2="330" stroke="#b0a898" stroke-width="2"/>
  <rect x="390" y="260" width="110" height="140" fill="none" stroke="#b0a898" stroke-width="3"/>
  <line x1="445" y1="260" x2="445" y2="400" stroke="#b0a898" stroke-width="2"/>
  <line x1="390" y1="330" x2="500" y2="330" stroke="#b0a898" stroke-width="2"/>
  <rect x="700" y="260" width="110" height="140" fill="none" stroke="#b0a898" stroke-width="3"/>
  <line x1="755" y1="260" x2="755" y2="400" stroke="#b0a898" stroke-width="2"/>
  <line x1="700" y1="330" x2="810" y2="330" stroke="#b0a898" stroke-width="2"/>
  <rect x="860" y="260" width="110" height="140" fill="none" stroke="#b0a898" stroke-width="3"/>
  <line x1="915" y1="260" x2="915" y2="400" stroke="#b0a898" stroke-width="2"/>
  <line x1="860" y1="330" x2="970" y2="330" stroke="#b0a898" stroke-width="2"/>

  <!-- Balconies Floor 1 -->
  <rect x="505" y="255" width="180" height="155" fill="url(#balcony-shade)"/>
  <rect x="505" y="255" width="180" height="8" fill="#9a9288"/>
  <rect x="505" y="255" width="4" height="155" fill="#9a9288"/>
  <rect x="681" y="255" width="4" height="155" fill="#9a9288"/>
  <!-- Balcony railing -->
  <rect x="505" y="395" width="180" height="15" fill="#9a9288"/>
  <line x1="520" y1="395" x2="520" y2="263" stroke="#b0a898" stroke-width="2" opacity="0.6"/>
  <line x1="545" y1="395" x2="545" y2="263" stroke="#b0a898" stroke-width="2" opacity="0.6"/>
  <line x1="570" y1="395" x2="570" y2="263" stroke="#b0a898" stroke-width="2" opacity="0.6"/>
  <line x1="595" y1="395" x2="595" y2="263" stroke="#b0a898" stroke-width="2" opacity="0.6"/>
  <line x1="620" y1="395" x2="620" y2="263" stroke="#b0a898" stroke-width="2" opacity="0.6"/>
  <line x1="645" y1="395" x2="645" y2="263" stroke="#b0a898" stroke-width="2" opacity="0.6"/>
  <line x1="670" y1="395" x2="670" y2="263" stroke="#b0a898" stroke-width="2" opacity="0.6"/>

  <!-- Windows - Floor 2 -->
  <rect x="230" y="430" width="110" height="120" fill="#7a9db5" opacity="0.85"/>
  <rect x="390" y="430" width="110" height="120" fill="#7a9db5" opacity="0.85"/>
  <rect x="700" y="430" width="110" height="120" fill="#7a9db5" opacity="0.85"/>
  <rect x="860" y="430" width="110" height="120" fill="#7a9db5" opacity="0.85"/>
  <rect x="230" y="430" width="110" height="120" fill="none" stroke="#b0a898" stroke-width="3"/>
  <line x1="285" y1="430" x2="285" y2="550" stroke="#b0a898" stroke-width="2"/>
  <rect x="390" y="430" width="110" height="120" fill="none" stroke="#b0a898" stroke-width="3"/>
  <line x1="445" y1="430" x2="445" y2="550" stroke="#b0a898" stroke-width="2"/>
  <rect x="700" y="430" width="110" height="120" fill="none" stroke="#b0a898" stroke-width="3"/>
  <line x1="755" y1="430" x2="755" y2="550" stroke="#b0a898" stroke-width="2"/>
  <rect x="860" y="430" width="110" height="120" fill="none" stroke="#b0a898" stroke-width="3"/>
  <line x1="915" y1="430" x2="915" y2="550" stroke="#b0a898" stroke-width="2"/>

  <!-- Balconies Floor 2 -->
  <rect x="505" y="425" width="180" height="125" fill="url(#balcony-shade)"/>
  <rect x="505" y="425" width="180" height="8" fill="#9a9288"/>
  <rect x="505" y="425" width="4" height="125" fill="#9a9288"/>
  <rect x="681" y="425" width="4" height="125" fill="#9a9288"/>
  <rect x="505" y="543" width="180" height="15" fill="#9a9288"/>
  <line x1="520" y1="543" x2="520" y2="433" stroke="#b0a898" stroke-width="2" opacity="0.6"/>
  <line x1="545" y1="543" x2="545" y2="433" stroke="#b0a898" stroke-width="2" opacity="0.6"/>
  <line x1="570" y1="543" x2="570" y2="433" stroke="#b0a898" stroke-width="2" opacity="0.6"/>
  <line x1="595" y1="543" x2="595" y2="433" stroke="#b0a898" stroke-width="2" opacity="0.6"/>
  <line x1="620" y1="543" x2="620" y2="433" stroke="#b0a898" stroke-width="2" opacity="0.6"/>
  <line x1="645" y1="543" x2="645" y2="433" stroke="#b0a898" stroke-width="2" opacity="0.6"/>
  <line x1="670" y1="543" x2="670" y2="433" stroke="#b0a898" stroke-width="2" opacity="0.6"/>

  <!-- Entrance -->
  <rect x="525" y="560" width="150" height="80" fill="#5a7a90" opacity="0.9"/>
  <rect x="525" y="560" width="150" height="80" fill="none" stroke="#9a9288" stroke-width="3"/>
  <line x1="600" y1="560" x2="600" y2="640" stroke="#9a9288" stroke-width="2"/>

  <!-- Top floor windows -->
  <rect x="260" y="175" width="80" height="60" fill="#7a9db5" opacity="0.7"/>
  <rect x="380" y="175" width="80" height="60" fill="#7a9db5" opacity="0.7"/>
  <rect x="500" y="175" width="80" height="60" fill="#7a9db5" opacity="0.7"/>
  <rect x="640" y="175" width="80" height="60" fill="#7a9db5" opacity="0.7"/>
  <rect x="760" y="175" width="80" height="60" fill="#7a9db5" opacity="0.7"/>
  <rect x="880" y="175" width="80" height="60" fill="#7a9db5" opacity="0.7"/>

  <!-- Trees left -->
  <rect x="80" y="480" width="18" height="160" fill="#5a4a32"/>
  <ellipse cx="89" cy="460" rx="55" ry="70" fill="#5a7a45"/>
  <ellipse cx="89" cy="440" rx="42" ry="55" fill="#6a9055"/>

  <!-- Trees right -->
  <rect x="1102" y="490" width="18" height="150" fill="#5a4a32"/>
  <ellipse cx="1111" cy="470" rx="55" ry="65" fill="#5a7a45"/>
  <ellipse cx="1111" cy="450" rx="42" ry="50" fill="#6a9055"/>

  <!-- PV label on roof -->
  <rect x="280" y="162" width="180" height="22" fill="#2a3a2a" opacity="0.5" rx="3"/>
  <text x="370" y="177" font-family="Arial, sans-serif" font-size="11" fill="#c8dcc8" text-anchor="middle" font-weight="600">☀ Photovoltaik</text>

  <!-- Label overlay -->
  <rect x="0" y="720" width="1200" height="80" fill="#1a1a2e" opacity="0.75"/>
  <text x="60" y="762" font-family="Arial, sans-serif" font-size="22" fill="#e8dcc0" font-weight="700">Mittelring 13 · Leipzig</text>
  <text x="60" y="786" font-family="Arial, sans-serif" font-size="14" fill="#c4a43c">Außenansicht · Neubau 2026 · KfW 40 QNG</text>
</svg>
