<svg xmlns="http://www.w3.org/2000/svg" viewBox="0 0 1200 800">
  <defs>
    <linearGradient id="sky-b" x1="0" y1="0" x2="0" y2="1">
      <stop offset="0%" stop-color="#6090c0"/>
      <stop offset="100%" stop-color="#90b8d8"/>
    </linearGradient>
    <linearGradient id="floor-b" x1="0" y1="0" x2="0" y2="1">
      <stop offset="0%" stop-color="#c0b090"/>
      <stop offset="100%" stop-color="#a89878"/>
    </linearGradient>
    <linearGradient id="railing-top" x1="0" y1="0" x2="0" y2="1">
      <stop offset="0%" stop-color="#e0dcd4"/>
      <stop offset="100%" stop-color="#c8c4bc"/>
    </linearGradient>
  </defs>

  <!-- Sky & cityscape -->
  <rect width="1200" height="800" fill="url(#sky-b)"/>

  <!-- Clouds -->
  <ellipse cx="300" cy="100" rx="120" ry="38" fill="white" opacity="0.7"/>
  <ellipse cx="380" cy="88" rx="90" ry="32" fill="white" opacity="0.8"/>
  <ellipse cx="850" cy="130" rx="100" ry="35" fill="white" opacity="0.65"/>
  <ellipse cx="940" cy="118" rx="80" ry="30" fill="white" opacity="0.7"/>
  <ellipse cx="680" cy="70" rx="70" ry="25" fill="white" opacity="0.5"/>

  <!-- Distant city skyline -->
  <!-- Buildings background -->
  <rect x="0" y="380" width="100" height="180" fill="#a0b0c0" opacity="0.5"/>
  <rect x="80" y="340" width="60" height="220" fill="#90a0b0" opacity="0.5"/>
  <rect x="120" y="360" width="80" height="200" fill="#a0b0c0" opacity="0.45"/>
  <rect x="180" y="310" width="50" height="250" fill="#90a0b0" opacity="0.5"/>
  <rect x="210" y="350" width="70" height="210" fill="#a0b0c0" opacity="0.45"/>
  <rect x="900" y="320" width="90" height="240" fill="#90a0b0" opacity="0.5"/>
  <rect x="970" y="350" width="60" height="210" fill="#a0b0c0" opacity="0.45"/>
  <rect x="1010" y="300" width="80" height="260" fill="#90a0b0" opacity="0.5"/>
  <rect x="1070" y="360" width="70" height="200" fill="#a0b0c0" opacity="0.45"/>
  <rect x="1120" y="330" width="80" height="230" fill="#90a0b0" opacity="0.5"/>

  <!-- Green (trees/parks at distance) -->
  <rect x="250" y="490" width="680" height="80" fill="#7a9a60" opacity="0.5"/>
  <ellipse cx="350" cy="480" rx="70" ry="50" fill="#6a8a50" opacity="0.5"/>
  <ellipse cx="500" cy="470" rx="80" ry="55" fill="#7a9a60" opacity="0.45"/>
  <ellipse cx="700" cy="475" rx="75" ry="52" fill="#6a8a50" opacity="0.5"/>
  <ellipse cx="850" cy="485" rx="65" ry="48" fill="#7a9a60" opacity="0.45"/>

  <!-- Horizon fade -->
  <rect x="0" y="500" width="1200" height="60" fill="#b0c8d8" opacity="0.3"/>

  <!-- Balcony floor -->
  <rect x="0" y="560" width="1200" height="240" fill="url(#floor-b)"/>
  <!-- Floor tiles large format -->
  <line x1="0" y1="600" x2="1200" y2="600" stroke="#a89070" stroke-width="2" opacity="0.4"/>
  <line x1="0" y1="640" x2="1200" y2="640" stroke="#a89070" stroke-width="2" opacity="0.4"/>
  <line x1="0" y1="680" x2="1200" y2="680" stroke="#a89070" stroke-width="2" opacity="0.4"/>
  <line x1="0" y1="720" x2="1200" y2="720" stroke="#a89070" stroke-width="2" opacity="0.4"/>
  <line x1="0" y1="760" x2="1200" y2="760" stroke="#a89070" stroke-width="2" opacity="0.4"/>
  <line x1="200" y1="560" x2="200" y2="800" stroke="#a89070" stroke-width="2" opacity="0.3"/>
  <line x1="400" y1="560" x2="400" y2="800" stroke="#a89070" stroke-width="2" opacity="0.3"/>
  <line x1="600" y1="560" x2="600" y2="800" stroke="#a89070" stroke-width="2" opacity="0.3"/>
  <line x1="800" y1="560" x2="800" y2="800" stroke="#a89070" stroke-width="2" opacity="0.3"/>
  <line x1="1000" y1="560" x2="1000" y2="800" stroke="#a89070" stroke-width="2" opacity="0.3"/>

  <!-- Balcony railing -->
  <!-- Top rail -->
  <rect x="0" y="500" width="1200" height="30" fill="url(#railing-top)" rx="2"/>
  <!-- Vertical balusters -->
  <rect x="20" y="500" width="8" height="80" fill="#c8c4bc"/>
  <rect x="50" y="500" width="8" height="80" fill="#c8c4bc" opacity="0.9"/>
  <rect x="80" y="500" width="8" height="80" fill="#c8c4bc"/>
  <rect x="110" y="500" width="8" height="80" fill="#c8c4bc" opacity="0.9"/>
  <rect x="140" y="500" width="8" height="80" fill="#c8c4bc"/>
  <rect x="170" y="500" width="8" height="80" fill="#c8c4bc" opacity="0.9"/>
  <rect x="200" y="500" width="8" height="80" fill="#c8c4bc"/>
  <rect x="230" y="500" width="8" height="80" fill="#c8c4bc" opacity="0.9"/>
  <rect x="260" y="500" width="8" height="80" fill="#c8c4bc"/>
  <rect x="290" y="500" width="8" height="80" fill="#c8c4bc" opacity="0.9"/>
  <rect x="320" y="500" width="8" height="80" fill="#c8c4bc"/>
  <rect x="350" y="500" width="8" height="80" fill="#c8c4bc" opacity="0.9"/>
  <rect x="380" y="500" width="8" height="80" fill="#c8c4bc"/>
  <rect x="410" y="500" width="8" height="80" fill="#c8c4bc" opacity="0.9"/>
  <rect x="440" y="500" width="8" height="80" fill="#c8c4bc"/>
  <rect x="470" y="500" width="8" height="80" fill="#c8c4bc" opacity="0.9"/>
  <rect x="500" y="500" width="8" height="80" fill="#c8c4bc"/>
  <rect x="530" y="500" width="8" height="80" fill="#c8c4bc" opacity="0.9"/>
  <rect x="560" y="500" width="8" height="80" fill="#c8c4bc"/>
  <rect x="590" y="500" width="8" height="80" fill="#c8c4bc" opacity="0.9"/>
  <rect x="620" y="500" width="8" height="80" fill="#c8c4bc"/>
  <rect x="650" y="500" width="8" height="80" fill="#c8c4bc" opacity="0.9"/>
  <rect x="680" y="500" width="8" height="80" fill="#c8c4bc"/>
  <rect x="710" y="500" width="8" height="80" fill="#c8c4bc" opacity="0.9"/>
  <rect x="740" y="500" width="8" height="80" fill="#c8c4bc"/>
  <rect x="770" y="500" width="8" height="80" fill="#c8c4bc" opacity="0.9"/>
  <rect x="800" y="500" width="8" height="80" fill="#c8c4bc"/>
  <rect x="830" y="500" width="8" height="80" fill="#c8c4bc" opacity="0.9"/>
  <rect x="860" y="500" width="8" height="80" fill="#c8c4bc"/>
  <rect x="890" y="500" width="8" height="80" fill="#c8c4bc" opacity="0.9"/>
  <rect x="920" y="500" width="8" height="80" fill="#c8c4bc"/>
  <rect x="950" y="500" width="8" height="80" fill="#c8c4bc" opacity="0.9"/>
  <rect x="980" y="500" width="8" height="80" fill="#c8c4bc"/>
  <rect x="1010" y="500" width="8" height="80" fill="#c8c4bc" opacity="0.9"/>
  <rect x="1040" y="500" width="8" height="80" fill="#c8c4bc"/>
  <rect x="1070" y="500" width="8" height="80" fill="#c8c4bc" opacity="0.9"/>
  <rect x="1100" y="500" width="8" height="80" fill="#c8c4bc"/>
  <rect x="1130" y="500" width="8" height="80" fill="#c8c4bc" opacity="0.9"/>
  <rect x="1160" y="500" width="8" height="80" fill="#c8c4bc"/>
  <rect x="1190" y="500" width="8" height="80" fill="#c8c4bc" opacity="0.9"/>
  <!-- Bottom rail -->
  <rect x="0" y="574" width="1200" height="14" fill="#c8c4bc" rx="2"/>

  <!-- Outdoor furniture -->
  <!-- Table -->
  <ellipse cx="600" cy="626" rx="120" ry="18" fill="#5a5040"/>
  <rect x="592" y="626" width="16" height="80" fill="#5a5040" rx="2"/>
  <!-- Chairs -->
  <!-- Left chair -->
  <rect x="400" y="590" width="100" height="80" fill="#4a4030" rx="4"/>
  <rect x="400" y="570" width="100" height="25" fill="#3a3020" rx="4"/>
  <rect x="400" y="670" width="20" height="40" fill="#4a4030" rx="2"/>
  <rect x="480" y="670" width="20" height="40" fill="#4a4030" rx="2"/>
  <!-- Cushion left -->
  <rect x="405" y="592" width="90" height="70" fill="#c8c0a8" rx="3"/>
  <!-- Right chair -->
  <rect x="700" y="590" width="100" height="80" fill="#4a4030" rx="4"/>
  <rect x="700" y="570" width="100" height="25" fill="#3a3020" rx="4"/>
  <rect x="700" y="670" width="20" height="40" fill="#4a4030" rx="2"/>
  <rect x="780" y="670" width="20" height="40" fill="#4a4030" rx="2"/>
  <!-- Cushion right -->
  <rect x="705" y="592" width="90" height="70" fill="#c8c0a8" rx="3"/>

  <!-- Plant pot -->
  <rect x="1080" y="580" width="70" height="60" fill="#7a6850" rx="4"/>
  <ellipse cx="1115" cy="578" rx="40" ry="18" fill="#5a7840"/>
  <ellipse cx="1100" cy="555" rx="30" ry="40" fill="#6a9050"/>
  <ellipse cx="1130" cy="548" rx="28" ry="44" fill="#5a8040"/>

  <!-- Label overlay -->
  <rect x="0" y="720" width="1200" height="80" fill="#1a1a2e" opacity="0.78"/>
  <text x="60" y="762" font-family="Arial, sans-serif" font-size="22" fill="#e8dcc0" font-weight="700">Balkon</text>
  <text x="60" y="786" font-family="Arial, sans-serif" font-size="14" fill="#c4a43c">Jede Wohnung mit eigenem Balkon · Stadtblick Leipzig</text>
</svg>
